<svg id="Layer_1" data-name="Layer 1" xmlns="http://www.w3.org/2000/svg" xmlns:xlink="http://www.w3.org/1999/xlink" viewBox="0 0 344.16 812.2"><defs><style>.cls-1{fill:#724a5d;}.cls-2{clip-path:url(#clip-path);}.cls-3{fill:#422918;}.cls-4{fill:#655351;}.cls-5{fill:#f9c597;}.cls-6{fill:#87382d;}.cls-7{fill:#da9c73;}.cls-8{fill:#fff;}.cls-9{fill:#dd6050;}.cls-10{fill:#ab463a;}.cls-11{fill:#d74b58;}.cls-12{fill:#583636;}.cls-13{fill:#432827;}.cls-14{fill:#bf0f2c;}.cls-15{fill:#e63a3a;}.cls-16{fill:#f39d86;}</style><clipPath id="clip-path" transform="translate(-4.58 -3.87)"><path id="SVGID" class="cls-1" d="M4.58,175.94A172.09,172.09,0,1,1,176.66,348,172.08,172.08,0,0,1,4.58,175.94Z"/></clipPath></defs><title>famel</title><path id="SVGID-2" data-name="SVGID" class="cls-1" d="M4.58,175.94A172.09,172.09,0,1,1,176.66,348,172.08,172.08,0,0,1,4.58,175.94Z" transform="translate(-4.58 -3.87)"/><g class="cls-2"><path class="cls-3" d="M122,126.42c-7.63,40.75,32.32,127.88,65.22,127.88s67-69,62.1-125.75c-1.94-22.4-29.19-2.13-62.1-2.13S126.12,104.31,122,126.42Z" transform="translate(-4.58 -3.87)"/><path class="cls-4" d="M156,765.87c-3.64,10.71-33.67,50.19-24.11,50.19,4.32,0,16.34-1.32,21.55-7.53,7.46-8.9,18.33-19.07,22.88-26,2.17-3.3-1.94-10-2.66-13.71Z" transform="translate(-4.58 -3.87)"/><path class="cls-5" d="M173.69,768.85s-10.5,14.79-20.28,11.45c-4.51-1.55,3.87-12.54,4.7-23.72s-14.84-112.23-14.84-123.12S147.16,603,147.16,603s-10-60-9.21-121.55c.35-28.38,44.38-43.78,46.8-6.27s-2.36,129.4-2.36,129.4,2.41,10.58,0,28.86C180.31,649.19,173.69,768.85,173.69,768.85Z" transform="translate(-4.58 -3.87)"/><path class="cls-4" d="M219.68,765.87c3.64,10.71,33.67,50.19,24.11,50.19-4.32,0-16.35-1.32-21.55-7.53-7.46-8.9-18.34-19.07-22.88-26-2.18-3.3,1.94-10,2.65-13.71Z" transform="translate(-4.58 -3.87)"/><path class="cls-5" d="M202,768.85s10.51,14.79,20.29,11.45c4.51-1.55-3.87-12.54-4.71-23.72s14.85-112.23,14.85-123.12S228.55,603,228.55,603s9.95-60,9.2-121.55c-.34-28.38-46.11-42.11-48.53-4.59s4.1,127.72,4.1,127.72-2.41,10.58,0,28.86C195.4,649.19,202,768.85,202,768.85Z" transform="translate(-4.58 -3.87)"/><path class="cls-6" d="M158.38,213.81h52.07V194.58s-5.51-5.06-23.06-5.06-24.56,3.37-24.56,3.37Z" transform="translate(-4.58 -3.87)"/><path class="cls-5" d="M276.69,398.42c2.55,10.13,1.81,22.89-2.79,24.05-4,1-9.49-8.35-12.39-16.38-.44-1.24.3,6.23-3.37,5.61-2.18-.36-3.22-12.13-2.18-14.73,3-7.61,5.58-10.39,8.7-11.18C269.26,384.64,274.14,388.29,276.69,398.42Z" transform="translate(-4.58 -3.87)"/><polygon class="cls-5" points="136.58 250.44 226 250.44 234.1 206.79 196.31 198.7 196.31 173.84 166.28 173.84 166.28 198.7 128.48 206.79 136.58 250.44"/><path class="cls-7" d="M170.86,182.77s6.74,10.12,15.52,10.12,14.51-10.12,14.51-10.12v-5.06h-30Z" transform="translate(-4.58 -3.87)"/><path class="cls-5" d="M236.92,141.38c-5.12,16.2-28.58,45.44-49.92,45.44-19.21,0-44.38-24.29-50.36-45.44s-3.83-45.44-3.83-45.44c0-28.79,8.53-59.83,54.19-59.83s54.19,36,54.19,63.88C241.19,100,242,125.19,236.92,141.38Z" transform="translate(-4.58 -3.87)"/><path class="cls-5" d="M119.31,128.69c2.88,9.51,12.82,14.52,15,9.55s6.54-7.51,5.2-15.58-11.75-16.79-16.25-14.35C116.24,112.13,116.94,120.88,119.31,128.69Z" transform="translate(-4.58 -3.87)"/><path class="cls-5" d="M252.58,127.69c-2.89,9.51-12.83,14.52-15,9.55s-6.54-7.51-5.2-15.58,11.75-16.79,16.26-14.35C255.64,111.13,254.94,119.88,252.58,127.69Z" transform="translate(-4.58 -3.87)"/><path class="cls-3" d="M230.31,129.91c8.53-4.28,7.58-22.6,18.3-22.6,10.32-36.9-10.39-87.87-61.67-87.87-54.5,0-74.79,54.93-65.36,90,9.84-6.43,5.89,12.13,19.33,20.45-5.44-11.7,6.57-8.38.75-27.22,5.65-8-1.29-40.61,44.22-40.61s34.4,23.06,43.36,35.21S233.51,125,230.31,129.91Z" transform="translate(-4.58 -3.87)"/><path class="cls-8" d="M141.17,367.22s5.12,6.64,43.58,6.64,45.83-6.64,45.83-6.64V254.3H141.17Z" transform="translate(-4.58 -3.87)"/><path class="cls-4" d="M144.34,583.17h40.41s1.92-58.84,1.66-90.78-1.84-72.11-1.84-72.11l4.11.36s-.1,38.21,0,70.4S191,583.18,191,583.18h40.4S250.2,417.25,247.51,401.3c-5.23-31-16.93-34.08-16.93-34.08H141.17s-13.53,7.54-16,36.84C123.4,424.4,144.34,583.17,144.34,583.17Z" transform="translate(-4.58 -3.87)"/><path class="cls-9" d="M210.45,194.58,190.44,297v42.74l50.8,36.89s-1.89-53.53-8.64-76.48c.45-10.8,7.78-43.17,7.78-43.17l1.9-46.36-20.68-4.43Z" transform="translate(-4.58 -3.87)"/><path class="cls-10" d="M207.08,192.67C209.89,205.49,190.44,297,190.44,297v42.74l21-63.88-6.52-6.75,9-7.88,7.66-55S214.5,195.82,207.08,192.67Z" transform="translate(-4.58 -3.87)"/><path class="cls-9" d="M265.9,248.9c1.6,7.6,8.85,104.42,8.1,139-2.07,4.06-17.41,9.69-19.77,6.59C250.93,347.88,240.38,265,240.38,257c0-10.52-8.63-46.36,1.9-46.36S260.5,223.26,265.9,248.9Z" transform="translate(-4.58 -3.87)"/><path class="cls-5" d="M93.22,398.64c-2.55,10.13-1.81,22.89,2.78,24.05,4,1,9.5-8.35,12.39-16.38.45-1.23-.29,6.23,3.38,5.62C114,411.56,115,399.8,114,397.2c-3-7.62-5.57-10.4-8.7-11.18C100.66,384.86,95.77,388.52,93.22,398.64Z" transform="translate(-4.58 -3.87)"/><path class="cls-9" d="M159.46,194.81l20,102.46V340l-47,36.66s2-50.47,8.73-73.41c-.45-10.8-11.64-46-11.64-46l-1.89-46.37,20.68-4.43Z" transform="translate(-4.58 -3.87)"/><path class="cls-10" d="M162.83,192.89c-2.8,12.82,16.65,104.38,16.65,104.38V340l-21-63.88,6.53-6.76-9-7.87-7.66-55S155.41,196,162.83,192.89Z" transform="translate(-4.58 -3.87)"/><path class="cls-9" d="M104,249.13c-1.59,7.6-8.85,104.42-8.1,139,2.08,4.05,17.41,9.68,19.77,6.59,3.3-46.63,13.85-129.54,13.85-137.48,0-10.53,8.64-46.37-1.89-46.37S109.41,223.49,104,249.13Z" transform="translate(-4.58 -3.87)"/><path class="cls-11" d="M246.79,138.49a4.06,4.06,0,1,1-4.06-4.06A4,4,0,0,1,246.79,138.49Z" transform="translate(-4.58 -3.87)"/><path class="cls-11" d="M134.16,138.49a4.05,4.05,0,1,1-4-4.06A4,4,0,0,1,134.16,138.49Z" transform="translate(-4.58 -3.87)"/><path class="cls-12" d="M150.45,110.4l-.71-.45a6.37,6.37,0,0,1-.77-.83,6.49,6.49,0,0,1-.45-1,7.07,7.07,0,0,1-.18-2.75,7,7,0,0,0,.91,2.41,6.43,6.43,0,0,0,.56.65c.22.1.31.22.5.3l.81.24a.81.81,0,0,1-.45,1.55A.57.57,0,0,1,150.45,110.4Z" transform="translate(-4.58 -3.87)"/><path class="cls-8" d="M173.27,113c0,3-4.86,7.2-10.92,7.2-7.4,0-11.85-4.3-11.85-8.85s6.4-7.61,11.8-6.61C168.26,105.81,173.27,109.72,173.27,113Z" transform="translate(-4.58 -3.87)"/><path class="cls-12" d="M169.9,112.92a8,8,0,0,1-3.51,6.62c-2.68,1.34-8.09.59-9.27-.2a8,8,0,1,1,12.78-6.42Z" transform="translate(-4.58 -3.87)"/><path class="cls-12" d="M150.61,112.63a7.62,7.62,0,0,1-.22-1.33,5.62,5.62,0,0,1,1-3.5c1.79-2.66,6-4.26,10.07-4a18.12,18.12,0,0,1,5.67,1.72,14.17,14.17,0,0,1,4.16,3,7.15,7.15,0,0,1,1.88,3.1,3.63,3.63,0,0,1,.09,1.36,3.94,3.94,0,0,0-.4-1.25,8,8,0,0,0-2.2-2.53,17.61,17.61,0,0,0-4.12-2.4,18.1,18.1,0,0,0-2.54-.89,23.07,23.07,0,0,0-2.68-.53c-3.59-.31-7.45.94-9.25,3A6.13,6.13,0,0,0,150.61,112.63Z" transform="translate(-4.58 -3.87)"/><path class="cls-13" d="M167.36,114.32a5.11,5.11,0,1,1-5.11-5.11A5.11,5.11,0,0,1,167.36,114.32Z" transform="translate(-4.58 -3.87)"/><path class="cls-8" d="M163.41,112a2.28,2.28,0,0,0,4.56,0,2.28,2.28,0,1,0-4.56,0Z" transform="translate(-4.58 -3.87)"/><path class="cls-8" d="M164.91,108.47a.75.75,0,1,1-.75-.76A.76.76,0,0,1,164.91,108.47Z" transform="translate(-4.58 -3.87)"/><path class="cls-12" d="M224.67,109l.8-.24c.19-.08.28-.2.5-.3a5.37,5.37,0,0,0,.56-.65,6.73,6.73,0,0,0,.91-2.41,7.07,7.07,0,0,1-.18,2.75A3.57,3.57,0,0,1,226,110l-.7.45a.8.8,0,0,1-1.12-.22.81.81,0,0,1,.23-1.13A.73.73,0,0,1,224.67,109Z" transform="translate(-4.58 -3.87)"/><path class="cls-8" d="M202.5,113c0,3,4.87,7.2,10.92,7.2,7.41,0,11.87-4.3,11.87-8.85s-6.41-7.61-11.81-6.61C207.52,105.81,202.5,109.72,202.5,113Z" transform="translate(-4.58 -3.87)"/><path class="cls-12" d="M205.89,112.92a8,8,0,0,0,3.51,6.62c2.67,1.34,8.08.59,9.28-.2a8,8,0,1,0-12.79-6.42Z" transform="translate(-4.58 -3.87)"/><path class="cls-12" d="M225.17,112.63a6,6,0,0,0-1.47-4.29c-1.79-2-5.66-3.28-9.24-3a23.4,23.4,0,0,0-2.7.53,17.08,17.08,0,0,0-2.52.9,17.53,17.53,0,0,0-4.13,2.39,8.45,8.45,0,0,0-2.21,2.53,4.3,4.3,0,0,0-.4,1.25,4.52,4.52,0,0,1,.1-1.36,7.25,7.25,0,0,1,1.88-3.1,14.09,14.09,0,0,1,4.17-3,18,18,0,0,1,5.67-1.72c4.09-.26,8.28,1.34,10.07,4a5.64,5.64,0,0,1,1,3.51A7.62,7.62,0,0,1,225.17,112.63Z" transform="translate(-4.58 -3.87)"/><path class="cls-13" d="M208.43,114.32a5.1,5.1,0,1,0,5.1-5.11A5.1,5.1,0,0,0,208.43,114.32Z" transform="translate(-4.58 -3.87)"/><path class="cls-8" d="M212.38,112a2.28,2.28,0,1,1-2.29-2.28A2.28,2.28,0,0,1,212.38,112Z" transform="translate(-4.58 -3.87)"/><path class="cls-8" d="M210.88,108.47a.75.75,0,0,0,1.5,0,.75.75,0,1,0-1.5,0Z" transform="translate(-4.58 -3.87)"/><path class="cls-7" d="M190.57,136.3a5.9,5.9,0,0,1-4.93,2.63c-3.37,0-5.61-1-6.11-1.57s3.32-7.3,3.32-7.3-1.79,4.71-1,5.88,3,1.15,4,1.15C189.3,137.09,190.57,136.3,190.57,136.3Z" transform="translate(-4.58 -3.87)"/><path class="cls-14" d="M202.4,153.17c0,7.73-7,14-15.56,14s-15.56-6.27-15.56-14Z" transform="translate(-4.58 -3.87)"/><path class="cls-15" d="M174.67,161.89a16.67,16.67,0,0,0,24.34,0,43.91,43.91,0,0,0-24.34,0Z" transform="translate(-4.58 -3.87)"/><path class="cls-8" d="M200.19,156.74a13.6,13.6,0,0,0,.46-3.57H173a13.52,13.52,0,0,0,.43,3.39,3,3,0,0,0,2.44,1.84H198A2.41,2.41,0,0,0,200.19,156.74Z" transform="translate(-4.58 -3.87)"/><path class="cls-3" d="M227.47,96.14s-8.51-4-17-3.16c-3.33.32-6.8.66-8.11.93s-.79-3.53.08-3.68,4.67-2.26,8.35-2C220.18,88.86,227.47,96.14,227.47,96.14Z" transform="translate(-4.58 -3.87)"/><path class="cls-3" d="M196,74.67a9.08,9.08,0,0,0-2-9.53c-1.5-1.59-6.66-3.12-7.62-3.35s3.5-2.2,4.12-2,4.27,1.06,6,3.14C200.46,67.85,196,74.67,196,74.67Z" transform="translate(-4.58 -3.87)"/><path class="cls-3" d="M177.64,74.67a9.08,9.08,0,0,1,2-9.53c1.5-1.59,6.66-3.12,7.61-3.35s-3.49-2.2-4.11-2-4.28,1.06-5.95,3.14C173.22,67.85,177.64,74.67,177.64,74.67Z" transform="translate(-4.58 -3.87)"/><path class="cls-3" d="M149.29,96.14s8.5-4,17-3.16c3.34.32,6.8.66,8.11.93s.8-3.53-.07-3.68-4.67-2.26-8.36-2C156.57,88.86,149.29,96.14,149.29,96.14Z" transform="translate(-4.58 -3.87)"/><path class="cls-16" d="M223.1,128.55c0,3-4.8,5.51-10.72,5.51s-10.73-2.46-10.73-5.51,4.8-5.5,10.73-5.5S223.1,125.51,223.1,128.55Z" transform="translate(-4.58 -3.87)"/><path class="cls-16" d="M171,128.55c0,3-4.81,5.51-10.73,5.51s-10.73-2.46-10.73-5.51,4.81-5.5,10.73-5.5S171,125.51,171,128.55Z" transform="translate(-4.58 -3.87)"/><path class="cls-9" d="M187,42c22.57,0,42,12.35,51.22,30.21-4-25.38-25.39-44.77-51.22-44.77s-47.17,19.39-51.21,44.77C145,54.35,164.45,42,187,42Z" transform="translate(-4.58 -3.87)"/></g></svg>