<svg xmlns="http://www.w3.org/2000/svg" xmlns:xlink="http://www.w3.org/1999/xlink" viewBox="0 0 344.16 359.58"><defs><style>.cls-1{fill:#93c01f;}.cls-2{isolation:isolate;}.cls-3{clip-path:url(#clip-path);}.cls-4{fill:#301b16;}.cls-5{fill:#f8ba8c;}.cls-6{fill:#e09d73;}.cls-7{fill:#e7dbd6;}.cls-12,.cls-7{mix-blend-mode:multiply;}.cls-8{fill:#fff;}.cls-9{fill:#422918;}.cls-10{fill:none;stroke:#301b16;stroke-miterlimit:10;stroke-width:3.98px;}.cls-11{fill:#fcfcfc;}.cls-12,.cls-14{fill:#e8e8e8;}.cls-13{fill:#004b74;}.cls-15{fill:#01324f;}</style><clipPath id="clip-path" transform="translate(-4.59 -4.17)"><path id="SVGID" class="cls-1" d="M4.59,176.25A172.08,172.08,0,1,1,176.67,348.33,172.08,172.08,0,0,1,4.59,176.25Z"/></clipPath></defs><title>male</title><g class="cls-2"><g id="Layer_1" data-name="Layer 1"><path id="SVGID-2" data-name="SVGID" class="cls-1" d="M4.59,176.25A172.08,172.08,0,1,1,176.67,348.33,172.08,172.08,0,0,1,4.59,176.25Z" transform="translate(-4.59 -4.17)"/><g class="cls-3"><path class="cls-4" d="M229.33,195.69c-20.64,24.51-46.78,32.63-57,32.58-10.46,0-38.74-7.36-59.74-33-11.91-14.54-16.73-43.12-19.79-63.06C91,120.72,89.49,85,94.3,71.24,80,54.83,87,39.41,87,39.41s5.91,15.14,41.69,6.65c10.6-2.51,29.5-5.07,41.35-7.12,17.46-3,35.88-.35,38.34,9.57,20.15-.63,30.31,9.86,35.25,18.84,7.2,13.08,9.83,31.39,7.9,48.8C249,139.13,241.71,181,229.33,195.69Z" transform="translate(-4.59 -4.17)"/><path class="cls-5" d="M106.32,148.77s2.53-19-14-14.44c-12.71,3.53.19,38.86,8.55,41.91,7.14,2.62,8.72-2.86,8.72-2.86Z" transform="translate(-4.59 -4.17)"/><path class="cls-5" d="M236.57,149.29s-2.37-19,14.1-14.34c12.69,3.65-.5,38.87-8.87,41.84-7.17,2.56-8.7-2.92-8.7-2.92Z" transform="translate(-4.59 -4.17)"/><path class="cls-5" d="M264,363.75l9.37-96.46S238.84,252,219,247.17c-18.67-4.56-40.56-4.15-42.84-4.09s-24.17-.66-42.87,3.75c-19.86,4.68-53.9,19.7-53.9,19.7s6.5,45,12.84,97.22Z" transform="translate(-4.59 -4.17)"/><path class="cls-5" d="M172.16,278.82s45.57-31,42.81-32.55c-16.09-8.91-14.18-34.13-14.18-34.13l-58.35-3.28s3.55,35.67-13.75,40C127.42,249.2,172.16,278.82,172.16,278.82Z" transform="translate(-4.59 -4.17)"/><path class="cls-6" d="M141.57,230.18a20.88,20.88,0,0,1,7.08,4.06c7.67,6.56,25.48,16.41,36.17,13.1,7.91-2.44,13.37-8.57,18.91-14.92-3.76-9.56-2.94-20.28-2.94-20.28l-58.35-3.28A87.57,87.57,0,0,1,141.57,230.18Z" transform="translate(-4.59 -4.17)"/><path class="cls-5" d="M238.2,157.88c-2.87,20.86-3.76,32.92-15.9,47.63-8.44,10.23-26.86,25.65-40.33,31.92-3.79,1.76-15.93,2-19.74.48-14.73-5.69-35.43-20.75-42.65-32.8-9.6-16-12.16-28.81-14.93-47.76-3.34-22.77-3.64-14.74-3.56-36.22.17-43.74,17.18-75.26,66.21-75.07s74,27.79,74.57,72.68C242.18,143.34,241.37,135,238.2,157.88Z" transform="translate(-4.59 -4.17)"/><path class="cls-4" d="M139.41,200.14c-3.19,10.7,2.81,26.77,4.85,28.14a96.91,96.91,0,0,0,18,9.63c3.81,1.48,16,1.28,19.74-.48a92.31,92.31,0,0,0,13.62-8.12c2.28-1.6,9.2-18.72,8-29.17s-18.85-14.68-32.79-14.43S142.59,189.44,139.41,200.14Z" transform="translate(-4.59 -4.17)"/><path class="cls-5" d="M144.68,201.1c-2.05,6.89,7.8,20.62,9.13,21.5a63.36,63.36,0,0,0,11.57,6.21c1.08.41,3.89-14,6.13-14,2.87,0,5.23,14.31,6.6,13.68a59.71,59.71,0,0,0,8.78-5.24c1.47-1,12.05-17.69,11.29-24.43s-14.68-1.18-28.36-1.18C160.83,197.65,146.74,194.2,144.68,201.1Z" transform="translate(-4.59 -4.17)"/><path class="cls-7" d="M125.77,105.06c6.61-6.82,56.85,18.31,66.58,17,14.23-2,14.2-14,23.58-13.93,21.73.08,15.52,26.8,18.88,44.29.9,4.69,2,1.39,3.3,6.24l.09-.73c3.17-22.87,4-14.54,3.67-39.14-.57-44.89-24.09-75.46-73.16-75.66s-67.45,34.31-67.62,78.05c-.08,20.48,5.73,14.08,8.66,33.2C114,145.49,118,113.12,125.77,105.06Z" transform="translate(-4.59 -4.17)"/><path class="cls-4" d="M120.8,98.63c14.4-14.41,65.85,39.67,86.89,3.59,24.93.42,21.46,11.72,25.41,20.69,1.82,4.15,1.76,38.45,1.76,38.45s3.29-3.07,3.34-3.48C241.37,135,245,144,244.65,119.36c-.57-44.9-26.87-76.08-75.94-76.28s-69.87,34.28-70,78c-.09,21.48,2.64,13.47,6,36.24,0,.35,4.94-1.51,4.94-1.51S102.39,117,120.8,98.63Z" transform="translate(-4.59 -4.17)"/><path class="cls-5" d="M80.66,363.75l8.53-25.52s24.08-81.7-9.78-71.7c-21,6.2-35.16,56.06-43.38,97.22Z" transform="translate(-4.59 -4.17)"/><path class="cls-5" d="M272.64,363.75H317.3c-7.92-41-21.63-90.15-42.39-96.45-33.78-10.27-10.34,71.63-10.34,71.63Z" transform="translate(-4.59 -4.17)"/><path class="cls-8" d="M221,149A13.43,13.43,0,0,1,217,155.7c-2.49,2.34-17.61,3.85-19.2,3.13-2.38-1.07-5.46-6.19-5.46-6.19s5.35-7.29,11.92-7.27S221,149,221,149Z" transform="translate(-4.59 -4.17)"/><path class="cls-9" d="M204.26,146.81c4.75,0,11.35,1.87,14.64,2.91.76.24.36,2.83-.91,5a9.56,9.56,0,0,0,3-5.73s-10.13-3.57-16.69-3.59-11.92,7.27-11.92,7.27a2.56,2.56,0,0,0,.76,1.17C194.3,152.35,198.59,146.78,204.26,146.81Z" transform="translate(-4.59 -4.17)"/><path class="cls-9" d="M211.49,152.06a6.66,6.66,0,1,1-6.63-6.69A6.67,6.67,0,0,1,211.49,152.06Z" transform="translate(-4.59 -4.17)"/><path class="cls-8" d="M210.53,152.06c0,2.81-7.89-5.13-5.07-5.12A5.09,5.09,0,0,1,210.53,152.06Z" transform="translate(-4.59 -4.17)"/><path class="cls-4" d="M115.91,137.46s3.76-2.4,12.15-5c9.13-2.78,21.59,1.6,22.07,1.61.85,0,2.11-.22,2.12-2.45s-.67-4.05-1.52-4.06c-.48,0-12.83-3-22.11-.26C121.53,129.41,115.91,137.46,115.91,137.46Z" transform="translate(-4.59 -4.17)"/><path class="cls-4" d="M228.24,137.9s-3.69-2.43-11.94-5.05c-9-2.87-21.31,1.42-21.79,1.42-.84,0-2.08-.24-2.07-2.47s.7-4,1.54-4c.47,0,12.67-2.88,21.8-.09C222.76,129.81,228.24,137.9,228.24,137.9Z" transform="translate(-4.59 -4.17)"/><path class="cls-8" d="M123.59,148.58a13.48,13.48,0,0,0,3.9,6.78c2.46,2.34,17.57,4,19.17,3.27,2.39-1.06,5.51-6.15,5.51-6.15s-5.29-7.34-11.86-7.36S123.59,148.58,123.59,148.58Z" transform="translate(-4.59 -4.17)"/><path class="cls-9" d="M140.31,146.55c-4.75,0-11.36,1.79-14.66,2.8-.76.23-.38,2.82.88,5a9.52,9.52,0,0,1-2.94-5.75s10.17-3.49,16.72-3.46,11.86,7.36,11.86,7.36a2.73,2.73,0,0,1-.77,1.17C150.23,152.17,146,146.58,140.31,146.55Z" transform="translate(-4.59 -4.17)"/><path class="cls-9" d="M133,151.74a6.66,6.66,0,1,0,6.68-6.63A6.66,6.66,0,0,0,133,151.74Z" transform="translate(-4.59 -4.17)"/><path class="cls-8" d="M134,151.76c0,2.81,7.93-5.07,5.11-5.08A5.09,5.09,0,0,0,134,151.76Z" transform="translate(-4.59 -4.17)"/><polygon class="cls-6" points="166.84 175.85 160.89 171.1 166.91 157.19 166.84 175.85"/><polygon class="cls-6" points="151.36 201.45 146.94 197.46 154.32 199.38 180.01 199.19 187.21 196.93 181.63 201.46 151.36 201.45"/><path class="cls-10" d="M157.36,170.09c-6,4.69-24.54,4.94-31.84,0s-15.92-24-8.3-30.41,40.14-6.22,45.46,0S163.34,165.41,157.36,170.09Z" transform="translate(-4.59 -4.17)"/><path class="cls-10" d="M187.23,170.09c6,4.69,24.55,4.94,31.84,0s15.93-24,8.3-30.41-40.14-6.22-45.45,0S181.26,165.41,187.23,170.09Z" transform="translate(-4.59 -4.17)"/><line class="cls-10" x1="160.41" y1="141.37" x2="175.01" y2="141.37"/><path class="cls-11" d="M264,363.75l9.37-96.46S238.84,252,219,247.17c-1.26,26.62-24.81,41.55-45.38,41.55s-41.86-17.64-41.72-42.61c-19.86,4.68-52.51,20.42-52.51,20.42s6.5,45,12.84,97.22Z" transform="translate(-4.59 -4.17)"/><path class="cls-12" d="M264,363.75l3.3-34-.46.21c-14.35,7.85-13.36,19.71-13.93,33.77Z" transform="translate(-4.59 -4.17)"/><path class="cls-12" d="M99,363.75c-5.08-17.32-9.24-31.24-11.19-35.11,1.43,11,2.92,22.87,4.41,35.11Z" transform="translate(-4.59 -4.17)"/><path class="cls-13" d="M80.66,363.75l8.53-25.52s24.08-81.7-9.78-71.7c-21,6.2-35.16,56.06-43.38,97.22Z" transform="translate(-4.59 -4.17)"/><path class="cls-12" d="M80.66,363.75l8.53-25.52a264.35,264.35,0,0,0,6-26.65c-9,14.12-21.61,24.45-25.6,42.24-.75,3.34-1.63,6.65-2.56,9.93Z" transform="translate(-4.59 -4.17)"/><path class="cls-13" d="M272.64,363.75H317.3c-7.92-41-21.63-90.15-42.39-96.45-33.78-10.27-10.34,71.63-10.34,71.63Z" transform="translate(-4.59 -4.17)"/><path class="cls-12" d="M272.64,363.75h16c-1.1-4.4-2.31-8.74-3.7-13-4.41-13.32-14.5-19.84-24.31-28.19,2,9.47,3.93,16.33,3.93,16.33Z" transform="translate(-4.59 -4.17)"/><path class="cls-14" d="M213.15,243.84s-7.28,37-39.44,36.17S137,241.57,137,241.57l-5.09,4.54s-2.6,47.57,42.42,46.58S219,247.17,219,247.17Z" transform="translate(-4.59 -4.17)"/><path class="cls-13" d="M144.94,363.75V337.82a337.2,337.2,0,0,1-13-91.71c-19.86,4.68-52.51,20.42-52.51,20.42s4.67,43.55,8.68,97.22Z" transform="translate(-4.59 -4.17)"/><path class="cls-13" d="M265.47,363.75c3.7-53.62,7.86-96.46,7.86-96.46S238.84,252,219,247.17c-.59,12.38-1.76,53.82-13.71,90.3l.31,26.28Z" transform="translate(-4.59 -4.17)"/><path class="cls-12" d="M265.47,363.75c.75-10.89,1.52-21.34,2.27-31.07-.25.41-.49.83-.78,1.25-6.06,8.75-10.35,19-13.39,29.82Z" transform="translate(-4.59 -4.17)"/><path class="cls-15" d="M216.3,363.75l10.41-27.59-13.44-4.32,23.56-6,11.28-71.34L219,247.17s-1.32,48.53-13.71,90.3c.08,7.08.2,16.94.31,26.28Z" transform="translate(-4.59 -4.17)"/><path class="cls-15" d="M137.65,330.79l-13.44,4.31L135,363.75H145.3c.11-9.65.23-20,.31-27.33-12.38-41.78-13.71-90.31-13.71-90.31l-29.09,7.39,11.28,71.32Z" transform="translate(-4.59 -4.17)"/></g></g></g></svg>